<?xml version="1.0" standalone="no"?>
<!DOCTYPE svg PUBLIC "-//W3C//DTD SVG 20010904//EN"
 "http://www.w3.org/TR/2001/REC-SVG-20010904/DTD/svg10.dtd">
<svg version="1.0" xmlns="http://www.w3.org/2000/svg"
 width="100.000000pt" height="38.000000pt" viewBox="0 0 100.000000 38.000000"
 preserveAspectRatio="xMidYMid meet">
<metadata>
Created by potrace 1.16, written by Peter Selinger 2001-2019
</metadata>
<g transform="translate(0.000000,38.000000) scale(0.100000,-0.100000)"
fill="#000000" stroke="none">
<path d="M0 190 l0 -190 320 0 c207 0 320 4 320 10 0 6 18 10 40 10 22 0 40
-4 40 -10 0 -6 45 -10 116 -10 119 0 144 8 144 44 0 9 5 16 10 16 6 0 10 33
10 80 0 47 -4 80 -10 80 -6 0 -10 29 -10 66 0 92 -4 94 -144 94 l-116 0 0
-160 c0 -155 -1 -160 -21 -160 -11 0 -17 5 -14 10 3 6 1 10 -4 10 -6 0 -11 -4
-11 -10 0 -5 -4 -10 -9 -10 -6 0 -3 16 5 36 8 20 13 38 11 41 -3 2 -11 -12
-18 -31 -7 -20 -16 -36 -20 -36 -4 0 -5 -9 -2 -19 4 -16 -2 -19 -42 -23 l-47
-3 5 57 c4 42 2 58 -7 58 -18 0 -36 -44 -36 -85 l0 -35 -119 0 c-66 0 -126 3
-134 6 -12 4 -13 13 -6 45 10 41 2 68 -28 98 -9 8 -12 22 -8 35 4 12 10 37 14
58 l8 36 -43 4 c-58 4 -69 0 -51 -21 23 -27 80 -243 66 -251 -6 -4 -51 -8
-100 -9 l-89 -2 0 53 c0 77 8 96 39 100 35 4 38 35 11 112 -11 33 -20 63 -20
67 0 5 25 7 55 5 43 -4 55 -1 55 10 0 11 -17 14 -80 14 l-80 0 0 -190z"/>
<path d="M240 370 c0 -5 20 -10 45 -10 25 0 45 -4 45 -9 0 -6 -11 -45 -24 -88
-39 -124 -41 -118 32 -119 l62 -1 0 38 c0 28 4 39 15 39 8 0 15 7 15 15 0 20
63 20 84 0 19 -19 46 -19 46 0 0 8 0 18 1 22 0 11 -83 34 -108 30 -12 -2 -20
0 -17 4 3 5 -4 9 -15 9 -17 0 -21 6 -21 30 l0 30 120 0 c73 0 120 4 120 10 0
6 -73 10 -200 10 -127 0 -200 -4 -200 -10z"/>
</g>
</svg>
