<?xml version="1.0" standalone="no"?>
<!DOCTYPE svg PUBLIC "-//W3C//DTD SVG 20010904//EN"
 "http://www.w3.org/TR/2001/REC-SVG-20010904/DTD/svg10.dtd">
<svg version="1.0" xmlns="http://www.w3.org/2000/svg"
 width="399.000000pt" height="564.000000pt" viewBox="0 0 399.000000 564.000000"
 preserveAspectRatio="xMidYMid meet">

<g transform="translate(0.000000,564.000000) scale(0.100000,-0.100000)"
fill="#000000" stroke="none">
<path d="M1236 4368 c-3 -13 -6 -37 -6 -55 0 -107 -84 -333 -174 -471 -79
-122 -152 -169 -217 -142 -37 16 -55 50 -68 130 -6 34 -13 65 -16 68 -18 18
-45 -64 -45 -137 0 -73 32 -138 104 -214 58 -62 60 -66 71 -207 9 -114 29
-173 70 -209 56 -49 127 -60 225 -35 37 10 13 -11 -29 -25 -53 -18 -137 -14
-181 9 -72 37 -98 92 -109 233 -9 114 -21 135 -47 86 -26 -51 -31 -190 -9
-279 35 -142 103 -178 360 -195 222 -14 314 -38 475 -122 173 -90 306 -198
429 -348 105 -127 201 -341 261 -580 12 -49 24 -95 26 -102 5 -18 215 197 242
247 12 23 22 46 22 51 0 11 -96 -35 -123 -59 -29 -26 -29 -6 0 28 33 39 32 50
-9 180 -32 102 -109 263 -160 339 -90 131 -243 292 -398 416 -121 97 -156 133
-188 193 -39 74 -46 109 -43 215 2 86 1 88 -20 85 -78 -11 -92 -270 -23 -425
13 -31 22 -58 20 -60 -3 -3 -19 15 -36 39 -17 23 -38 51 -46 61 -22 27 -104
62 -214 92 -199 55 -258 75 -298 105 -121 87 -104 239 55 505 96 161 134 286
136 445 2 105 -6 160 -22 160 -5 0 -11 -10 -15 -22z"/>
<path d="M2944 4379 c-4 -6 -9 -50 -12 -98 -8 -158 35 -314 136 -490 78 -136
119 -227 134 -299 11 -57 10 -69 -7 -120 -34 -96 -67 -114 -364 -196 -152 -43
-210 -74 -249 -135 -18 -28 -38 -51 -43 -51 -12 0 -12 0 10 46 56 116 66 305
22 392 -14 28 -28 42 -41 42 -19 0 -20 -7 -20 -99 0 -188 -32 -235 -308 -459
l-41 -34 76 -86 c42 -48 84 -95 93 -106 17 -18 20 -17 94 33 125 85 278 155
391 181 23 5 122 16 220 25 99 8 195 20 214 27 89 28 131 75 157 171 29 108 6
303 -34 295 -14 -3 -18 -21 -24 -105 -12 -186 -77 -259 -223 -250 -41 2 -82
11 -100 21 l-30 17 35 -6 c19 -3 51 -8 70 -11 49 -8 116 12 149 44 48 46 62
86 71 204 12 141 19 162 81 223 59 58 88 115 96 188 5 51 -7 117 -27 147 -14
22 -26 0 -33 -61 -12 -97 -57 -147 -124 -135 -29 6 -52 22 -98 71 -117 122
-213 352 -240 573 -7 50 -17 64 -31 41z"/>
<path d="M1502 2537 c3 -202 -1 -192 108 -256 212 -126 288 -323 307 -793 5
-135 9 -170 22 -181 9 -8 49 -22 88 -32 70 -18 76 -18 146 -1 111 26 117 32
117 124 -1 113 -26 353 -49 464 -81 386 -280 651 -605 802 -43 20 -92 40 -108
43 l-29 6 3 -176z"/>
<path d="M2610 2680 c-54 -23 -186 -93 -198 -105 -2 -2 11 -30 30 -62 44 -75
83 -159 99 -211 7 -23 14 -42 16 -42 11 0 113 63 127 79 14 16 18 48 22 195 5
203 12 193 -96 146z"/>
<path d="M1590 2070 c0 -31 53 -103 143 -196 56 -57 105 -104 109 -104 8 0
-24 106 -45 146 -8 16 -36 49 -60 71 -49 45 -147 100 -147 83z"/>
</g>
</svg>
